<svg xmlns="http://www.w3.org/2000/svg" viewBox="0 10.079999923706055 64.98999786376953 41.190006256103516" data-asc="1.0087890625" width="64.98999786376953" height="41.190006256103516"><defs/><g fill="#db0000"><g transform="translate(0, 0)"><path d="M23.78 34.06Q23.78 40.01 23.50 42.49Q23.22 44.97 21.74 47.02Q20.26 49.07 17.75 50.17Q15.23 51.27 11.89 51.27Q8.72 51.27 6.19 50.23Q3.66 49.19 2.12 47.12Q0.59 45.04 0.29 42.60Q0 40.16 0 34.06L0 27.29Q0 21.34 0.28 18.86Q0.56 16.38 2.04 14.33Q3.52 12.28 6.03 11.18Q8.54 10.08 11.89 10.08Q15.06 10.08 17.59 11.12Q20.12 12.16 21.66 14.23Q23.19 16.31 23.49 18.75Q23.78 21.19 23.78 27.29L23.78 34.06M13.50 21.07Q13.50 18.31 13.20 17.54Q12.89 16.77 11.94 16.77Q11.13 16.77 10.71 17.40Q10.28 18.02 10.28 21.07L10.28 39.53Q10.28 42.97 10.56 43.77Q10.84 44.58 11.87 44.58Q12.92 44.58 13.21 43.65Q13.50 42.72 13.50 39.23L13.50 21.07ZM52.10 10.91L46.22 28.76L52.66 50.44L42.04 50.44L37.89 33.50L37.89 50.44L27.61 50.44L27.61 10.91L37.89 10.91L37.89 26.27L42.46 10.91L52.10 10.91ZM64.99 10.91L63.38 40.67L55.76 40.67L54.15 10.91L64.99 10.91M64.18 42.53L64.18 50.44L54.96 50.44L54.96 42.53L64.18 42.53Z"/></g></g></svg>